<svg width="58" height="34" viewBox="0 0 58 34" fill="none" xmlns="http://www.w3.org/2000/svg">
<path d="M0.5 0.549998H13.65C16.75 0.549998 19.1333 0.783331 20.8 1.25C22.5 1.68333 23.7 2.4 24.4 3.4C25.1 4.36667 25.45 5.73333 25.45 7.5V11.5C25.45 12.4 25.0833 13.25 24.35 14.05C23.65 14.85 22.8167 15.4 21.85 15.7V15.95C23.1167 16.0833 24.2667 16.6333 25.3 17.6C26.3667 18.5333 26.9 19.5833 26.9 20.75V25.75C26.9 28.3833 25.85 30.25 23.75 31.35C21.65 32.45 18.4 33 14 33H0.5V0.549998ZM13.65 13.75C14.8833 13.75 15.8 13.65 16.4 13.45C17 13.25 17.4 12.9333 17.6 12.5C17.8333 12.0333 17.95 11.3667 17.95 10.5V8.9C17.95 8.13333 17.85 7.56667 17.65 7.2C17.45 6.8 17.0333 6.51667 16.4 6.35C15.8 6.18333 14.8333 6.1 13.5 6.1H8.3V13.75H13.65ZM13.85 27.45C15.75 27.45 17.1 27.2333 17.9 26.8C18.7 26.3667 19.1 25.6667 19.1 24.7V22.1C19.1 20.9 18.7833 20.05 18.15 19.55C17.55 19.05 16.4667 18.8 14.9 18.8H8.3V27.45H13.85Z" fill="#0368FF"/>
<path d="M42.7383 33.5C39.6383 33.5 35.8049 33.2 31.2383 32.6V26.65C36.9049 27.5167 40.7716 27.95 42.8383 27.95C47.1716 27.95 49.3383 26.8333 49.3383 24.6V22.5C49.3383 21.4333 49.0216 20.6167 48.3883 20.05C47.7883 19.4833 46.6883 19.2 45.0883 19.2H41.2883C34.1549 19.2 30.5883 16.3667 30.5883 10.7V8.3C30.5883 5.46666 31.7716 3.38333 34.1383 2.05C36.5049 0.716665 40.2549 0.049998 45.3883 0.049998C48.0549 0.049998 51.4383 0.266665 55.5383 0.699999V6.5C50.5049 5.9 47.0383 5.6 45.1383 5.6C42.5049 5.6 40.7383 5.81666 39.8383 6.25C38.8716 6.71667 38.3883 7.45 38.3883 8.45V10.75C38.3883 12.45 39.8216 13.3 42.6883 13.3H46.5883C50.2883 13.3 52.9716 13.9833 54.6383 15.35C56.3049 16.7167 57.1383 18.8 57.1383 21.6V23.75C57.1383 27.6167 55.7549 30.2333 52.9883 31.6C51.6549 32.3 50.1716 32.7833 48.5383 33.05C46.9383 33.35 45.0049 33.5 42.7383 33.5Z" fill="#7000C8"/>
</svg>
