<svg width="20" height="21" viewBox="0 0 20 21" fill="none" xmlns="http://www.w3.org/2000/svg">
<ellipse cx="9.66209" cy="8.9882" rx="9.03484" ry="8.9882" fill="white"/>
<path d="M7.26334 12.8754L7.04431 10.1067L8.4229 9.99875C8.47853 10.5038 8.64051 10.8672 8.90884 11.0891C9.17687 11.3072 9.47056 11.4037 9.78989 11.3787C10.0391 11.3592 10.2426 11.257 10.4004 11.0723C10.5579 10.8836 10.6274 10.6725 10.6089 10.4388C10.5892 10.1896 10.489 9.98783 10.3083 9.8335C10.1273 9.67527 9.8062 9.5045 9.34499 9.32119C8.37042 8.93907 7.70002 8.58798 7.33379 8.26793C6.97146 7.94758 6.76704 7.4934 6.72052 6.9054C6.66445 6.19667 6.84299 5.63023 7.25614 5.20606C7.66929 4.78189 8.1582 4.5477 8.72288 4.50349C9.36934 4.45287 9.88963 4.66486 10.2838 5.13945L10.2306 4.46772L11.6034 4.36024L11.7988 6.83104L10.4261 6.93852C10.3531 6.56025 10.1974 6.27662 9.95908 6.08761C9.72436 5.8944 9.46097 5.80923 9.16889 5.8321C8.94302 5.84979 8.75697 5.92509 8.61075 6.058C8.46453 6.19091 8.39912 6.35472 8.41452 6.54943C8.42777 6.71687 8.50465 6.8715 8.64518 7.0133C8.7854 7.15122 9.17799 7.33402 9.82296 7.56172C10.4439 7.78345 10.9227 7.99085 11.2593 8.18392C11.5995 8.37279 11.8767 8.63319 12.0911 8.96513C12.3051 9.29317 12.43 9.68305 12.4658 10.1348C12.5292 10.9369 12.3433 11.5588 11.908 12.0004C11.4727 12.442 10.9358 12.6878 10.2971 12.7378C9.58443 12.7936 9.01453 12.5737 8.58741 12.0782L8.64193 12.7674L7.26334 12.8754Z" fill="#0D21D0"/>
</svg>
