<svg width="36" height="36" viewBox="0 0 36 36" fill="none" xmlns="http://www.w3.org/2000/svg">
<rect width="36" height="36" rx="10" fill="#F8DFFF"/>
<path d="M23.3462 4H11.6538C10.6848 4 9.75542 4.33523 9.07019 4.93193C8.38496 5.52864 8 6.33795 8 7.18182V28.8182C8 29.6621 8.38496 30.4714 9.07019 31.0681C9.75542 31.6648 10.6848 32 11.6538 32H23.3462C24.3152 32 25.2446 31.6648 25.9298 31.0681C26.615 30.4714 27 29.6621 27 28.8182V7.18182C27 6.33795 26.615 5.52864 25.9298 4.93193C25.2446 4.33523 24.3152 4 23.3462 4ZM17.5 30.7273C16.2869 30.7273 15.3077 29.8745 15.3077 28.8182C15.3077 27.7618 16.2869 26.9091 17.5 26.9091C18.7131 26.9091 19.6923 27.7618 19.6923 28.8182C19.6923 29.8745 18.7131 30.7273 17.5 30.7273ZM24.0769 25.6364H10.9231V7.81818H24.0769V25.6364Z" fill="#AB4FC7"/>
</svg>
