<svg width="36" height="36" viewBox="0 0 36 36" fill="none" xmlns="http://www.w3.org/2000/svg">
<rect width="36" height="36" rx="10" fill="#E9DEFF"/>
<path d="M18 18.5C21.7875 18.5 24.8571 15.4783 24.8571 11.75C24.8571 8.02168 21.7875 5 18 5C14.2125 5 11.1429 8.02168 11.1429 11.75C11.1429 15.4783 14.2125 18.5 18 18.5ZM22.8 20.1875H21.9054C20.7161 20.7254 19.3929 21.0312 18 21.0312C16.6071 21.0312 15.2893 20.7254 14.0946 20.1875H13.2C9.225 20.1875 6 23.3621 6 27.275V29.4688C6 30.8662 7.15179 32 8.57143 32H27.4286C28.8482 32 30 30.8662 30 29.4688V27.275C30 23.3621 26.775 20.1875 22.8 20.1875Z" fill="#3E00C1"/>
</svg>
