<svg width="36" height="36" viewBox="0 0 36 36" fill="none" xmlns="http://www.w3.org/2000/svg">
<rect width="36" height="36" rx="10" fill="#DFFBFF"/>
<path d="M6 17.6768V17.6426C6.31381 13.6824 7.77824 10.7122 10.3236 8.83446C12.834 6.92261 15.5537 6.00083 18.5174 6.00083C21.6206 5.96669 24.5146 6.99089 27.0948 9.0393C29.7099 11.0536 31 14.0579 31 17.9499V18.1889C31 22.115 29.7099 25.051 27.0948 27.0653C24.4798 29.1137 21.5858 30.1379 18.4826 30.1379H18.3431C15.3096 30.1038 12.5202 29.0796 9.94003 27.0312C7.35983 25.0169 6.03487 21.9102 6 17.6768ZM17.7503 12.3168V6.92261H16.9135C16.7392 7.12745 16.5997 7.36643 16.4603 7.57127C16.3208 7.77612 16.1813 7.98096 16.0418 8.21994C15.9024 8.42478 15.728 8.6979 15.6234 8.90274C15.484 9.10758 15.3794 9.31242 15.2748 9.5514C15.0656 9.89281 14.8912 10.2342 14.7517 10.5415C14.5774 10.8487 14.4379 11.156 14.3333 11.4291C14.5425 11.5657 14.7866 11.7364 15.0656 11.8388C15.3794 11.9412 15.6932 12.0436 16.007 12.1119C16.3556 12.1802 16.6695 12.2143 16.9484 12.2485C17.2622 12.2826 17.5411 12.3168 17.7503 12.3168ZM19.2148 6.92261V12.2826C19.3891 12.2826 19.5983 12.3168 19.8075 12.2826C20.0167 12.2826 20.2608 12.2485 20.47 12.2143C20.8536 12.1461 21.3068 12.0436 21.6555 11.9412C22.0391 11.8047 22.3877 11.634 22.6318 11.4291C22.2134 10.439 21.7601 9.65383 21.3068 8.90274C20.8536 8.15166 20.3305 7.50299 19.7727 6.95675V6.92261H19.2148ZM15.4491 7.22987V7.19573C15.205 7.29815 14.9609 7.46885 14.682 7.57127C14.4379 7.67369 14.1241 7.81026 13.8801 7.94682C13.3919 8.1858 12.9038 8.45892 12.4156 8.76618C11.9623 9.07344 11.5091 9.41484 11.1255 9.75625C11.265 9.89281 11.4393 10.0294 11.5788 10.1318C11.7183 10.2342 11.8926 10.3708 12.0669 10.5073C12.2064 10.5756 12.3808 10.678 12.5551 10.8146C12.7294 10.917 12.9386 11.0536 13.1478 11.1901C13.4268 10.5756 13.7057 9.92695 14.0544 9.34656C14.4031 8.73204 14.7866 8.15166 15.1702 7.63955C15.205 7.57127 15.2399 7.50299 15.3096 7.43471C15.3445 7.40057 15.3794 7.29815 15.4491 7.22987ZM26.1185 9.75625V9.72211C25.2469 9.07344 24.4798 8.5272 23.7127 8.1858C22.9456 7.8444 22.1785 7.50299 21.4812 7.22987C22.0391 7.77612 22.5272 8.45892 22.841 9.10758C23.1897 9.79039 23.5384 10.5073 23.8173 11.1901C23.9568 11.1219 24.1311 11.0536 24.3403 10.917C24.5146 10.8146 24.7587 10.7122 24.9679 10.6098C25.1771 10.4732 25.3515 10.3366 25.5607 10.2001C25.7699 10.0294 25.9791 9.89281 26.1185 9.75625ZM25.5258 17.3695H29.5356C29.5356 16.1063 29.2566 14.9114 28.7336 13.6824C28.2455 12.4875 27.5481 11.4974 26.6764 10.6439V10.6098C26.5021 10.8829 26.258 11.1219 26.0139 11.2926C25.735 11.4633 25.4909 11.5998 25.212 11.7364C25.0377 11.8388 24.8633 11.9754 24.689 12.0436C24.5146 12.1461 24.2706 12.2143 24.0962 12.3168C24.2357 12.5899 24.3752 12.8971 24.5146 13.1703C24.6192 13.4775 24.7936 13.8189 24.8633 14.1262C25.0725 14.6724 25.212 15.2528 25.3515 15.8332C25.4561 16.3453 25.5258 16.8915 25.5258 17.3695ZM12.9038 12.3168V12.2826C12.6248 12.1461 12.311 12.0436 12.0669 11.9071C11.8229 11.7364 11.5788 11.5657 11.3696 11.4291C11.1604 11.3267 10.9512 11.1901 10.7768 11.0536C10.6025 10.917 10.463 10.7805 10.3236 10.6439C9.41702 11.4974 8.75453 12.4533 8.33612 13.5799C7.88285 14.7066 7.56904 15.9698 7.42957 17.3354H11.7183C11.7183 16.3794 11.8577 15.4577 12.1018 14.5359C12.311 13.5799 12.6248 12.863 12.9038 12.3168ZM17.7503 17.3354V13.4092C17.4714 13.4434 17.1227 13.4434 16.8089 13.4092C16.4603 13.3751 16.1116 13.2727 15.7978 13.1703C15.5188 13.102 15.1702 13.0337 14.8912 12.9313C14.5774 12.863 14.2636 12.7264 14.0195 12.5899C13.8103 12.9313 13.636 13.341 13.4965 13.7848C13.3222 14.1945 13.2176 14.6383 13.113 15.048C13.0432 15.4577 13.0084 15.9015 12.9735 16.277C12.9386 16.6526 12.9038 17.0281 12.9038 17.3354H17.7503ZM19.2148 13.4775V17.3354H24.3752C24.3752 17.1305 24.3752 16.8915 24.3403 16.6184C24.2706 16.3794 24.2357 16.0722 24.2008 15.7991C24.0962 15.3894 23.9916 14.9456 23.8522 14.5359C23.7127 14.1603 23.5732 13.7848 23.3989 13.4775C23.3291 13.3068 23.2594 13.102 23.1897 12.9654C23.0851 12.7947 22.9805 12.6923 22.9107 12.5899C22.5272 12.863 22.0042 13.0337 21.3766 13.1703C20.7838 13.3068 20.0865 13.4434 19.4589 13.4775H19.2148ZM11.7183 18.462H7.42957C7.42957 19.0424 7.53417 19.691 7.70851 20.4763C7.88285 21.2956 8.23152 22.0467 8.61506 22.8661C8.7894 23.2758 8.99861 23.6854 9.20781 24.0951C9.45188 24.4707 9.73082 24.8803 10.0098 25.2559C10.219 25.1193 10.4282 25.0169 10.6025 24.9145C10.8117 24.8121 11.0558 24.6755 11.265 24.5731C11.5091 24.4707 11.7531 24.3682 12.0321 24.2317C12.2762 24.1293 12.59 23.9927 12.9038 23.8561C12.6248 23.0026 12.311 22.1833 12.1018 21.2615C11.8577 20.3738 11.7183 19.4862 11.7183 18.4961V18.462ZM17.7503 22.4564V18.462H12.9038C12.9038 18.7351 12.9386 19.1448 13.0084 19.5545C13.0432 19.9642 13.1478 20.408 13.2176 20.8518C13.357 21.3298 13.4616 21.8077 13.6011 22.2174C13.7406 22.6271 13.8801 22.9685 14.0195 23.2758C14.6471 23.0368 15.2748 22.8661 15.6932 22.7637C16.1464 22.6271 16.5649 22.5247 16.9833 22.4905H17.3668C17.5063 22.4564 17.6457 22.4564 17.7503 22.4564ZM19.2148 18.462V22.4223C19.4589 22.4564 19.7378 22.4905 20.0167 22.5247C20.3305 22.5588 20.7141 22.6271 21.0279 22.6954L21.5509 22.7978C21.7252 22.8661 21.9344 22.9002 22.1088 22.9344C22.318 23.0026 22.5272 23.0368 22.7364 23.1051C22.9107 23.1733 23.0851 23.2075 23.2245 23.2758C23.6778 22.1491 23.9568 21.2273 24.1311 20.4421C24.3054 19.691 24.3752 19.0424 24.3752 18.4961V18.462H19.2148ZM29.5356 18.4961V18.462H25.5258V18.6668C25.4909 19.3155 25.3863 20.0666 25.2469 20.8518C25.1074 21.6029 24.7936 22.4905 24.3752 23.583C24.9331 23.8561 25.4561 24.1293 25.8745 24.4024C26.2929 24.6755 26.6764 24.9828 26.9554 25.2559C27.5481 24.6755 28.0711 23.8903 28.5244 22.8661C28.9777 21.876 29.2915 20.8518 29.4658 19.7593C29.5007 19.5545 29.5007 19.3496 29.5356 19.1448V18.4961ZM17.7503 28.8747V23.5489C16.8787 23.6854 16.1464 23.8561 15.5886 23.9927C15.0307 24.1293 14.6123 24.2658 14.3333 24.4024C14.5425 24.9145 14.7517 25.3583 14.9609 25.768C15.1702 26.1435 15.4142 26.5532 15.6234 26.8946C15.6932 27.0312 15.8326 27.1677 15.9372 27.3384C16.0418 27.475 16.1116 27.6457 16.2162 27.7823C16.3208 27.953 16.4254 28.1578 16.53 28.3626C16.6695 28.5333 16.7741 28.7382 16.9135 28.8747H17.7503ZM19.2148 28.8747H20.0167C20.3305 28.6358 20.6444 28.2944 20.8884 27.9188C21.1674 27.5433 21.4812 27.0995 21.6904 26.7239C21.9344 26.2801 22.1785 25.8704 22.3877 25.4607C22.5969 25.051 22.7713 24.6755 22.9107 24.4024C22.5272 24.2658 22.0042 24.1293 21.4812 23.9927C20.9582 23.8561 20.2259 23.7196 19.2148 23.583V28.8747ZM26.1185 26.0753V26.0411C26.0488 25.9387 25.9093 25.8021 25.8047 25.6997C25.7001 25.5973 25.5258 25.4607 25.3515 25.3583C25.212 25.2559 25.0377 25.1535 24.8285 25.051C24.6192 24.9486 24.3403 24.8121 24.0962 24.6755C23.9568 24.9486 23.7127 25.4266 23.364 26.0753C23.0502 26.7239 22.4923 27.5091 21.795 28.3626C22.6667 28.2261 23.4338 27.9188 24.1311 27.5091C24.8982 27.1336 25.5607 26.6215 26.1185 26.0753ZM13.1478 24.9828V24.9486C12.9038 25.0852 12.5202 25.2559 12.1367 25.4266C11.7183 25.5973 11.265 25.8021 10.8466 26.0753C11.0907 26.2801 11.3347 26.4849 11.5439 26.6215C11.7531 26.7922 11.9972 26.9288 12.2064 27.0653C12.59 27.3043 13.0432 27.5433 13.4965 27.7481C13.9498 27.953 14.5077 28.1578 15.205 28.3626C14.9609 28.0895 14.7866 27.7481 14.6123 27.475C14.4379 27.2019 14.2287 26.9288 14.0544 26.6556C13.8801 26.3825 13.7406 26.0753 13.6011 25.8021C13.4268 25.529 13.2873 25.2559 13.1478 24.9828Z" fill="#12CAE5"/>
</svg>
